<svg xmlns="http://www.w3.org/2000/svg" viewBox="0 0 156.6 77.6"><path d="M151.8 58.7c-.5 0-1-.1-1.5-.2s-.9-.3-1.2-.6l.4-1c.3.2.6.4 1 .5.4.1.8.2 1.2.2.5 0 .9-.1 1.1-.2.3-.2.4-.4.4-.6 0-.2-.1-.4-.2-.5-.1-.1-.3-.2-.5-.3-.2-.1-.5-.2-.9-.2-.5-.1-.9-.2-1.3-.4-.3-.1-.6-.3-.8-.6-.2-.3-.3-.6-.3-1.1 0-.4.1-.7.3-1 .2-.3.5-.6.9-.7.4-.2.9-.3 1.5-.3.4 0 .8.1 1.2.2.4.1.8.3 1 .4l-.4 1c-.3-.2-.6-.3-.9-.4-.3-.1-.6-.1-.9-.1-.5 0-.9.1-1.1.3-.2.2-.4.4-.4.7 0 .2.1.4.2.5.1.1.3.2.5.3.2.1.5.2.9.2.5.1.9.2 1.2.4.3.1.6.3.8.6.2.3.3.6.3 1.1 0 .4-.1.7-.3 1-.2.3-.5.5-.9.7-.2 0-.7.1-1.3.1m-6.1 0c-.5 0-1-.1-1.5-.2s-.9-.3-1.2-.6l.4-1c.3.2.6.4 1 .5.4.1.8.2 1.2.2.5 0 .9-.1 1.1-.2.3-.2.4-.4.4-.6 0-.2-.1-.4-.2-.5-.1-.1-.3-.2-.5-.3-.2-.1-.5-.2-.9-.2-.5-.1-.9-.2-1.3-.4-.3-.1-.6-.3-.8-.6-.2-.3-.3-.6-.3-1.1 0-.4.1-.7.3-1 .2-.3.5-.6.9-.7.4-.2.9-.3 1.5-.3.4 0 .8.1 1.2.2.4.1.8.3 1 .4l-.4 1c-.3-.2-.6-.3-.9-.4-.3-.1-.6-.1-.9-.1-.5 0-.9.1-1.1.3-.2.2-.4.4-.4.7 0 .2.1.4.2.5.1.1.3.2.5.3.2.1.5.2.9.2.5.1.9.2 1.2.4.3.1.6.3.8.6.2.3.3.6.3 1.1 0 .4-.1.7-.3 1-.2.3-.5.5-.9.7-.2 0-.7.1-1.3.1zm-3.5-1.2v1.1h-5.1v-6.8h5v1.1h-3.7v1.8h3.3v1h-3.3v1.9h3.8zm-9.1 1.2c-.7 0-1.3-.2-1.9-.5-.6-.3-1-.7-1.3-1.3-.3-.5-.5-1.1-.5-1.8s.2-1.3.5-1.8.8-1 1.3-1.3c.6-.3 1.2-.5 1.9-.5.6 0 1.1.1 1.5.3.5.2.9.5 1.2.8l-.8.8c-.5-.5-1.1-.8-1.8-.8-.5 0-.9.1-1.3.3-.4.2-.7.5-.9.9-.2.4-.3.8-.3 1.2s.1.9.3 1.2c.2.4.5.6.9.9.4.2.8.3 1.3.3.7 0 1.3-.3 1.8-.8l.8.8c-.3.4-.7.7-1.2.8-.4.4-.9.5-1.5.5zm-6.9 0c-.7 0-1.3-.2-1.9-.5-.6-.3-1-.7-1.3-1.3-.3-.5-.5-1.1-.5-1.8s.2-1.3.5-1.8.8-1 1.3-1.3c.6-.3 1.2-.5 1.9-.5.6 0 1.1.1 1.5.3.5.2.9.5 1.2.8l-.8.8c-.5-.5-1.1-.8-1.8-.8-.5 0-.9.1-1.3.3-.4.2-.7.5-.9.9-.2.4-.3.8-.3 1.2s.1.9.3 1.2c.2.4.5.6.9.9.4.2.8.3 1.3.3.7 0 1.3-.3 1.8-.8l.8.8c-.3.4-.7.7-1.2.8-.5.4-1 .5-1.5.5zm-7.9 0c-.9 0-1.7-.3-2.2-.8-.5-.5-.8-1.3-.8-2.3v-3.9h1.3v3.8c0 1.3.6 2 1.7 2 1.2 0 1.7-.7 1.7-2v-3.8h1.2v3.9c0 1-.3 1.7-.8 2.3-.5.5-1.2.8-2.1.8zm-7 0c-.5 0-1-.1-1.5-.2s-.9-.3-1.2-.6l.4-1c.3.2.6.4 1 .5.4.1.8.2 1.2.2.5 0 .9-.1 1.1-.2.3-.2.4-.4.4-.6 0-.2-.1-.4-.2-.5-.1-.1-.3-.2-.5-.3-.2-.1-.5-.2-.9-.2-.5-.1-.9-.2-1.3-.4-.3-.1-.6-.3-.8-.6-.2-.3-.3-.6-.3-1.1 0-.4.1-.7.3-1 .2-.3.5-.6.9-.7.4-.2.9-.3 1.5-.3.4 0 .8.1 1.2.2.4.1.8.3 1 .4l-.4 1c-.3-.2-.6-.3-.9-.4-.3-.1-.6-.1-.9-.1-.5 0-.9.1-1.1.3-.2.2-.4.4-.4.7 0 .2.1.4.2.5.1.1.3.2.5.3.2.1.5.2.9.2.5.1.9.2 1.2.4.3.1.6.3.8.6.2.3.3.6.3 1.1 0 .4-.1.7-.3 1-.2.3-.5.5-.9.7-.2 0-.7.1-1.3.1zm-9.8-5.9v2.1h3.3V56h-3.3v2.6h-1.3v-6.8h5v1.1h-3.7zm-6.2 4.8c.5 0 .9-.1 1.2-.3.4-.2.7-.5.9-.9.2-.4.3-.8.3-1.2s-.1-.9-.3-1.2c-.2-.4-.5-.7-.9-.9-.4-.2-.8-.3-1.2-.3-.5 0-.9.1-1.2.3-.4.2-.7.5-.9.9-.2.4-.3.8-.3 1.2s.1.9.3 1.2c.2.4.5.7.9.9.3.2.7.3 1.2.3zm0 1.1c-.7 0-1.3-.2-1.9-.5-.6-.3-1-.7-1.3-1.3-.3-.5-.5-1.1-.5-1.8s.2-1.3.5-1.8.8-1 1.3-1.3c.6-.3 1.2-.5 1.9-.5s1.3.2 1.9.5c.6.3 1 .7 1.3 1.3.3.5.5 1.1.5 1.8s-.2 1.3-.5 1.8-.8 1-1.3 1.3c-.6.3-1.3.5-1.9.5z" fill="#004e9e"/><path d="M72.4 48.7c1.1 2.9 1.1 6.1 0 9.6 0 .1 0 .1-.1.2-2.1.7-3.8.8-4.3-1-1-3.6 2.5-7.1 4.4-8.8M40.7 22.5C37.4 33 23.1 43.7 14.9 50.3h14.7s6.1.5 8.7-8.7c2.6-9.2 6.8-24 6.8-24h22.5c2.3-.1 6.8-.5 8.9-3.4l-3.1 10c-.2.7-.7 1.3-1.4 1.8-1.8 1.3-4.7 1.6-6.7 1.7H47.8l-3.4 12.1c3.2-.9 6.5-1.4 9.8-1.3 8.4.1 14.8 3.6 17.5 8.8-5.2 3.7-11.1 14-1.5 14 .3 0 .7 0 1-.1-4.8 9.5-17.5 16.6-29.9 16.4-3.4 0-6.4-.6-9-1.6l1.8-6.4c1.8 2.1 4.6 3.5 8 3.5 7.5.1 15.3-5.8 17.4-13.3 2.1-7.5-2.2-13.6-9.7-13.8-2.6 0-5.3.7-7.7 1.9l-3.5 12.4H0l.5-4.6s9.2-6 17.1-14.3c5.3-5.5 11.3-13.5 11.4-21.1.1-7.1-5-11.5-11.4-9.9-3.7.9-7 3.7-9.2 7.2H3.6C15.1-5.8 48.3-1.8 40.7 22.5z" fill-rule="evenodd" clip-rule="evenodd" fill="#004e9e"/><path d="M70.7 57.5c-1.1.1-2.1-.4-2.2-1.6-.4-6.1 12.8-13.8 21-13.7 0 0 1.4-.1 1.9 0-4.7 6.4-14.3 14.9-20.7 15.3m41.7-24.8c-.2 1.3-5.9 6.8-8.8 7.2 1.1-1.8 5-6 8.8-7.2zm33.7 7.4c0 1.3-4.2 3.5-5.6 3.9 1.1-1 3.6-2.7 5.6-3.9zm-45.9-11c-2.5 4.2-5.4 8.4-8.5 12.5-1.2-.1-2.3 0-3.5 0-10.7.7-21.6 8.8-21.1 14.9.2 2.2 1.9 3 4.1 3 7.8 0 19-10.5 23.8-17.2 1.6.3 2.6.5 3.9.9.1.9 1.4 2.1 2.4 2.1 3.1 0 7.1-3 10.3-5.6-.8 1.2-1.2 2.3-1.2 3.2 0 .7.9 2 1.5 2.3.1 0 .2.1.3.1 1.4 0 8.1-5.7 9.1-6.8-.6.9-1.6 2.4-2 3.7-.1.5-.3.9-.3 1.3 0 .6.6 1.3 1.1 1.6.2.1.4.2.6.2 1.5 0 5-3.2 7.9-6.2-.7 1.1-1.2 2.1-1.7 3.1-.4.8-.6 1.4-.5 1.7.2 1 1.1 2 2 1.8-.8-.3 1.3-3.3 3-5.2 2.3-2.6 3.9-3.9 7.1-5.8-.9 1-2 3-2 4 0 .4 1 1.6 1.6 1.6 1.6 0 4.1-1.9 5.7-3.3.4 1.1 1.7 2 2 2.4-1.2.5-6.2 3.3-6.3 4.8.2.8.5 1.4 1.3 1.4 2.2 0 6.7-1.8 7.2-4 .1-.7-.8-1.7-1.2-2 3.7-2.2 5.8-2.6 6.5-2.8-.7-1.2-6.8 2.4-6.9 2.4-.3-.3-1.2-.9-1-1.4.4-1.6 5.7-4.8 7.3-4.7-.1.7-2.4 3.1-2.5 3.1 0 0 0 .1.1.1.9 0 3.1-2 3.1-2.5.1-1-.3-2.6-1.3-2.6-3 0-7.9 2.6-8.5 5.2v.4c-1.8 1.4-3.6 2.4-4.9 2.6 1.1-2.7 4-5.2 4.7-5.9.2-.3-1.2-1.7-1.5-1.7-.7.1-1.7.6-3.1 1.6-2.9 2.1-6.3 5-8.2 7.3.7-1.3 1.9-2.9 2.8-4.1 1-1.4 2.2-2.7 2.7-2.7.3 0 .4.2.4.1 0-.9-1.3-2.2-2.1-2.2-.1 0-.3 0-.5.2-.9.7-2.3 2.4-3.5 4.2-.3.4-.6.8-.9 1.3-2.4 2.2-6.1 5.6-8 6.2 0-.3.1-.7.3-1.2 1-2.2 4.1-5.9 4.3-5.6.1-.4-1-2.3-1.7-1.9-.9.5-3.1 2.6-3.7 3.2-1.8 1.5-6.6 4.9-7.7 5.3h-.2c-.3-.2 2.3-4.5 5.5-7.2 2.2-1.9 4.7-3.3 6.7-3.4 1-.1 1.7.4 1.7 1.5 0 .5-.2.9-.4 1.2 0 0 0 .1.1 0 .3-.4.6-1 .6-1.6 0-1.6-1.7-2.1-3-2.1-3.9 0-8.4 2.9-11.2 6.1-3.5 2.8-8.3 6.2-10.4 6.2-.8 0-1.1-.2-1-.6.1-.9.8-2 1.4-2.7 3.8-.1 10.4-5 10.4-7.1 0-1-1.6-1.7-2.1-1.7-1.5 0-4.5 1.1-7.3 3.4-2.1 1.8-3.9 4-4.7 5.9-.3.7-.4 1.3-.5 2.1-1.1-.6-2.6-.9-3.6-1.1.3-.4.6-1 1.2-1.7 5.3-7.3 13-21.5 15.1-21.6.2 0 .4-.1.7.2 0-.7-1.3-1.9-2.7-1.9s-4.2 4.4-8.7 9.8c-5.4 6.4-13 13-16 13.3-.5.1-1.2 0-1.2-.4-.2-2.8 10.8-13.7 10.5-18.9-.1-2.6-2.4-3.6-4.6-3.4-10 .7-23.4 12.5-23 18.2.1 1 1.3 1.6 2.3 1.6.9-.1 1.8-.8 2.1-1.4-.2.1-.9.2-1.1.2-.4.1-.8-.1-.9-.5-.1-1.9 11.7-16.8 20.4-17.3.9 0 2.7-.2 2.8 2.1.2 3.2-11.1 14.3-10.8 18.9 0 .7 1.1 2.3 2.8 2.2 3.9-.8 12.3-8.3 16.3-12.7z" fill="#ef7c00"/></svg>