<?xml version="1.0" encoding="utf-8"?>
<!-- Generator: Adobe Illustrator 22.1.0, SVG Export Plug-In . SVG Version: 6.00 Build 0)  -->
<svg version="1.1" id="Layer_1" xmlns="http://www.w3.org/2000/svg" xmlns:xlink="http://www.w3.org/1999/xlink" x="0px" y="0px"
	 viewBox="0 0 247.2 130.8" style="enable-background:new 0 0 247.2 130.8;" xml:space="preserve">
<style type="text/css">
	.st0{fill:#FFFFFF;}
</style>
<g id="Layer_1-2">
	<path class="st0" d="M234.7,106H12.2C5.4,106,0,100.5-0.1,93.8V35.5c0-6.8,5.5-12.2,12.2-12.2h222.5c6.8,0,12.2,5.5,12.2,12.2v58.2
		C246.9,100.5,241.4,106,234.7,106C234.7,106,234.7,106,234.7,106z M12.2,26.2c-5.2,0-9.3,4.2-9.3,9.3c0,0,0,0,0,0v58.2
		c0,5.2,4.2,9.3,9.3,9.3h0h222.5c5.2,0,9.3-4.2,9.3-9.3l0,0V35.5c0-5.2-4.2-9.3-9.3-9.3c0,0,0,0,0,0H12.2z"/>
	<path class="st0" d="M95.6,67c0.2,2.9-0.9,5.8-2.9,7.9c-2.3,2.3-5.4,3.6-8.7,3.5c-6.8,0.1-12.3-5.3-12.4-12c0-0.1,0-0.3,0-0.4
		c-0.1-6.7,5.3-12.3,12-12.4c0.1,0,0.2,0,0.3,0c1.7,0,3.3,0.3,4.9,1c1.4,0.6,2.7,1.5,3.7,2.6l-2.1,2.1c-1.6-1.9-4-2.9-6.5-2.8
		c-5.1,0-9.2,4.1-9.2,9.1c0,0.1,0,0.2,0,0.3c-0.1,5.1,4,9.4,9.1,9.5c2.5,0.1,5-0.9,6.8-2.7c1.2-1.3,1.9-3,2-4.8h-8.7v-2.9h11.6
		C95.6,65.8,95.6,66.4,95.6,67z"/>
	<path class="st0" d="M99.3,63.6c3.3-3.3,8.7-3.3,12,0c1.6,1.7,2.4,3.9,2.3,6.2c0.1,2.3-0.8,4.5-2.4,6.2c-3.3,3.3-8.7,3.3-12,0
		c-1.6-1.7-2.4-3.9-2.4-6.2C96.8,67.5,97.7,65.3,99.3,63.6z M101.5,74c1.9,2.1,5.2,2.1,7.3,0.2c0.1-0.1,0.1-0.1,0.2-0.2
		c1.1-1.1,1.7-2.7,1.6-4.3c0.1-1.6-0.5-3.1-1.6-4.3c-1.9-2.1-5.2-2.1-7.3-0.2c-0.1,0.1-0.1,0.1-0.2,0.2c-1.1,1.1-1.7,2.7-1.6,4.3
		C99.9,71.4,100.4,72.9,101.5,74z"/>
	<path class="st0" d="M117,63.6c3.3-3.3,8.7-3.3,12,0c1.6,1.7,2.4,3.9,2.4,6.2c0.1,2.3-0.8,4.5-2.4,6.2c-3.3,3.3-8.7,3.3-12,0
		c-1.6-1.7-2.4-3.9-2.4-6.2C114.6,67.5,115.4,65.3,117,63.6z M119.3,74c1.9,2.1,5.2,2.1,7.3,0.2c0.1-0.1,0.1-0.1,0.2-0.2
		c1.1-1.1,1.7-2.7,1.6-4.3c0.1-1.6-0.5-3.1-1.6-4.3c-1.9-2.1-5.2-2.1-7.3-0.2c-0.1,0.1-0.1,0.1-0.2,0.2c-1.1,1.1-1.7,2.7-1.6,4.3
		C117.6,71.4,118.2,72.9,119.3,74z"/>
	<path class="st0" d="M140.3,85.6c-1.7,0.1-3.4-0.4-4.7-1.4c-1.1-0.9-2-2-2.6-3.3l2.8-1.2c0.3,0.9,0.9,1.7,1.7,2.2
		c0.8,0.6,1.9,0.9,2.9,0.9c1.5,0.1,2.9-0.4,4-1.4c1-1.1,1.5-2.6,1.4-4.1v-1.6h-0.1c-0.6,0.8-1.4,1.5-2.3,2c-1,0.5-2.1,0.8-3.3,0.8
		c-2.1,0-4.1-0.9-5.5-2.5c-1.5-1.7-2.4-3.9-2.3-6.2c-0.1-2.3,0.8-4.5,2.3-6.2c1.4-1.6,3.3-2.5,5.4-2.5c1.1,0,2.3,0.3,3.3,0.8
		c0.9,0.5,1.7,1.2,2.3,2h0.1v-2.3h2.9v15.4c0.2,2.4-0.7,4.7-2.4,6.3C144.6,84.9,142.5,85.6,140.3,85.6z M140.6,75.6
		c1.4,0,2.7-0.6,3.7-1.6c1-1.2,1.6-2.8,1.4-4.3c0.1-1.6-0.4-3.1-1.4-4.3c-1.9-2-5-2.1-7-0.3c-0.1,0.1-0.2,0.2-0.3,0.3
		c-1,1.2-1.6,2.7-1.5,4.3c-0.1,1.6,0.5,3.1,1.5,4.3C137.8,75,139.2,75.6,140.6,75.6z"/>
	<path class="st0" d="M154.6,77.9h-3V54.2h3V77.9z"/>
	<path class="st0" d="M164.6,78.4c-2.3,0.1-4.4-0.8-6-2.5c-1.6-1.7-2.4-3.9-2.3-6.2c0-2.2,0.8-4.4,2.2-6.1c1.4-1.7,3.6-2.6,5.8-2.5
		c2.2-0.1,4.3,0.8,5.8,2.4c1.5,1.7,2.3,4,2.2,6.3v0.6h-12.8c0,1.5,0.6,2.8,1.6,3.9c0.9,0.9,2.2,1.5,3.5,1.4c1.9,0.2,3.8-1,4.4-2.8
		l2.7,1.1c-0.5,1.3-1.5,2.4-2.6,3.2C167.9,78.1,166.3,78.5,164.6,78.4z M169,67.8c-0.1-1-0.6-1.9-1.3-2.6c-0.9-0.9-2.2-1.4-3.5-1.3
		c-1.1,0-2.1,0.4-2.9,1.1c-0.9,0.8-1.5,1.8-1.7,2.9L169,67.8z"/>
	<path class="st0" d="M184.3,77.9h-3V54.2h8.1c1.9,0,3.8,0.7,5.2,2c2.8,2.6,3,6.9,0.4,9.7c-0.1,0.1-0.2,0.3-0.4,0.4
		c-1.4,1.3-3.3,2-5.2,2h-5L184.3,77.9z M184.3,65.4h5.1c1.2,0,2.3-0.4,3.1-1.3c1.5-1.6,1.5-4.1,0-5.7c-0.8-0.9-1.9-1.3-3.1-1.3h-5.1
		V65.4z"/>
	<path class="st0" d="M201.7,77.9h-3V54.2h3V77.9z"/>
	<path class="st0" d="M209.6,78.4c-1.6,0.1-3.1-0.4-4.3-1.4c-1.2-1-1.8-2.4-1.7-3.9c-0.1-1.6,0.7-3.2,2.1-4.2c1.5-1,3.3-1.5,5.1-1.4
		c1.5-0.1,3,0.3,4.3,1v-0.6c0.1-1.1-0.4-2.2-1.2-2.9c-0.8-0.7-1.9-1.1-3-1.1c-0.8,0-1.7,0.2-2.4,0.6c-0.7,0.4-1.2,1-1.4,1.7
		l-2.8-1.2c0.5-1.1,1.2-2,2.2-2.7c1.3-0.9,2.8-1.3,4.3-1.2c1.9-0.1,3.7,0.6,5.2,1.8c1.4,1.3,2.2,3.2,2.1,5.1v9.8H215v-2.2h-0.1
		C213.7,77.4,211.7,78.5,209.6,78.4z M210.1,75.6c1.3,0,2.5-0.5,3.4-1.4c1-0.8,1.5-2,1.5-3.3c-1.1-0.8-2.5-1.2-3.9-1.1
		c-1.2-0.1-2.4,0.2-3.4,1c-0.7,0.5-1.1,1.4-1.1,2.3c0,0.8,0.4,1.5,1,1.9C208.4,75.4,209.3,75.7,210.1,75.6L210.1,75.6z"/>
	<path class="st0" d="M224.6,85h-3.1l3.8-8.2l-6.7-15.2h3.4l4.8,11.7l0,0l4.7-11.7h3.3L224.6,85z"/>
	<path class="st0" d="M14.8,65.6c0-7.6,0-15.1,0-22.7c-0.1-0.9,0.2-1.8,0.8-2.5c0.3-0.3,0.4-0.3,0.8,0c5.1,5.2,10.2,10.4,15.3,15.6
		c3.3,3.4,6.6,6.7,9.9,10.1c0.3,0.3,0.3,0.5,0,0.8C33.6,75,25.4,83.1,17.3,91.2c-0.3,0.4-0.8,0.5-1.2,0.2c-0.1,0-0.1-0.1-0.1-0.1
		c-0.8-0.6-1.3-1.6-1.2-2.6c0-4.5,0-9,0-13.5C14.8,72,14.8,68.9,14.8,65.6L14.8,65.6z"/>
	<path class="st0" d="M17.7,39.6c0.5,0,1,0.1,1.4,0.4l31.2,17.4c0.5,0.3,0.5,0.4,0.1,0.8c-2.3,2.3-4.6,4.6-6.9,6.9
		c-0.2,0.2-0.4,0.4-0.7,0C34.5,56.7,26.3,48.3,18,39.9L17.7,39.6z"/>
	<path class="st0" d="M20.1,91c7.5-7.6,15.1-15.2,22.6-22.8c0.5-0.5,0.7-0.4,1.1,0c1.9,2,3.9,3.9,5.8,5.9c0.3,0.3,0.4,0.5-0.1,0.7
		l-29,15.9C20.3,90.8,20.2,90.9,20.1,91z"/>
	<path class="st0" d="M63.1,65.8c0,0.8-0.4,1.4-1,1.9c-0.5,0.3-0.9,0.6-1.4,0.9c-2.9,1.6-5.9,3.2-8.8,4.8c-0.3,0.2-0.7,0.2-0.9-0.1
		c0,0,0,0,0,0c-2.1-2.1-4.2-4.3-6.3-6.4c-0.3-0.3-0.3-0.5,0-0.8c2.5-2.4,4.9-4.8,7.3-7.2c0.2-0.3,0.6-0.3,0.8-0.1c0,0,0,0,0,0
		c2.9,1.6,5.8,3.3,8.7,4.9C62.3,64,63,64.9,63.1,65.8z"/>
</g>
</svg>
