<?xml version="1.0" encoding="utf-8"?>
<!-- Generator: Adobe Illustrator 23.0.6, SVG Export Plug-In . SVG Version: 6.00 Build 0)  -->
<svg version="1.1" id="Layer_1" xmlns="http://www.w3.org/2000/svg" xmlns:xlink="http://www.w3.org/1999/xlink" x="0px" y="0px"
	 viewBox="0 0 205.8 207" style="enable-background:new 0 0 205.8 207;" xml:space="preserve">
<style type="text/css">
	.st0{fill:#C4AA76;}
</style>
<path class="st0" d="M181.3,71c12.8-12.8,12.8-33.6,0-46.5c-12.8-12.8-33.6-12.8-46.5,0C122,37.3,122,58.1,134.9,71
	C147.7,83.8,168.5,83.8,181.3,71 M171.7,93.4c-12.6,3.8-25.6,2-36.3-3.8s-19.2-15.7-23-28.3s-2-25.6,3.8-36.3s15.7-19.2,28.3-23
	s25.6-2,36.3,3.8s19.2,15.7,23,28.3s2,25.6-3.8,36.3C194.2,81.2,184.3,89.7,171.7,93.4z"/>
<path class="st0" d="M124.4,81.5c-5.4-5.4-9.6-12.3-12-20.1c-3.8-12.6-2-25.6,3.8-36.3s15.7-19.2,28.3-23c12.6-3.8,25.6-2,36.3,3.8
	c4,2.1,7.6,4.9,10.9,8l0,0l0.1,0.1c2.9,2.9,2.9,7.6,0,10.5s-7.6,2.9-10.5,0l0,0c-12.8-12.8-33.6-12.8-46.5,0
	C122,37.3,122,58.1,134.9,71L124.4,81.5z"/>
<path class="st0" d="M78.2,28.2c0,3.3-1.4,6.4-3.5,8.6c-2.2,2.2-5.2,3.6-8.6,3.6v14.8c7.4,0,14.2-3,19.1-7.9
	C90,42.4,93,35.6,93,28.2S90,14,85.1,9.1c-4.8-4.8-11.3-7.7-18.5-7.9c-0.1,0-0.2,0-0.3,0H66H6.9C3.1,1.2,0,4.6,0,8.6
	C0,12.7,3.1,16,6.9,16h59.2l0,0c3.3,0,6.4,1.4,8.6,3.5C76.8,21.8,78.2,24.9,78.2,28.2"/>
<path class="st0" d="M93,67.3c0-7.4-3-14.2-7.9-19.1c-4.8-4.8-11.3-7.7-18.5-7.9c-0.1,0-0.2,0-0.3,0H66H6.9c-3.8,0-6.9,3.3-6.9,7.4
	s3.1,7.4,6.9,7.4h59.2c3.3,0,6.4,1.4,8.6,3.6c2.2,2.2,3.5,5.2,3.5,8.6c0,3.3-1.4,6.4-3.5,8.6c-2.2,2.2-5.2,3.5-8.6,3.5l0,0H6.9
	c-3.8,0-6.9,3.3-6.9,7.4s3.1,7.4,6.9,7.4h59.2h0.3c0.1,0,0.2,0,0.3,0c7.2-0.2,13.7-3.1,18.5-7.9C90,81.5,93,74.7,93,67.3"/>
<path class="st0" d="M27,127.7c3.3,0,6.4,1.4,8.6,3.5c2.2,2.2,3.6,5.2,3.6,8.6H54c0-7.4-3-14.2-7.9-19.1s-11.6-7.9-19.1-7.9
	c-7.4,0-14.2,3-19.1,7.9C3.1,125.5,0.2,132,0,139.2c0,0.1,0,0.2,0,0.3v0.3V199c0,3.8,3.3,6.9,7.4,6.9s7.4-3.1,7.4-6.9v-59.2l0,0
	c0-3.3,1.4-6.4,3.5-8.6C20.6,129,23.6,127.7,27,127.7"/>
<path class="st0" d="M66,112.8c-7.4,0-14.2,3-19.1,7.9c-4.8,4.8-7.7,11.3-7.9,18.5c0,0.1,0,0.2,0,0.3v0.3V199c0,3.8,3.3,6.9,7.4,6.9
	s7.4-3.1,7.4-6.9v-59.2c0-3.3,1.4-6.4,3.6-8.6c2.2-2.2,5.2-3.5,8.6-3.5c3.3,0,6.4,1.4,8.6,3.5c2.2,2.2,3.5,5.2,3.5,8.6l0,0V199
	c0,3.8,3.3,6.9,7.4,6.9s7.4-3.1,7.4-6.9v-59.2v-0.3c0-0.1,0-0.2,0-0.3c-0.2-7.2-3.1-13.7-7.9-18.5C80.2,115.9,73.5,112.8,66,112.8"
	/>
<path class="st0" d="M134.9,182.5c12.8,12.8,33.6,12.8,46.5,0c12.8-12.8,12.8-33.6,0-46.5c-12.8-12.8-33.7-12.8-46.5,0
	C122,148.9,122,169.7,134.9,182.5 M112.4,172.9c-3.8-12.6-2-25.6,3.8-36.3s15.7-19.2,28.3-23c12.6-3.8,25.6-2,36.3,3.8
	s19.2,15.7,23,28.3s2,25.6-3.8,36.3s-15.7,19.2-28.3,23s-25.6,2-36.3-3.8S116.2,185.5,112.4,172.9z"/>
<path class="st0" d="M124.4,125.6c5.4-5.4,12.3-9.6,20.1-12c12.6-3.8,25.6-2,36.3,3.8s19.2,15.7,23,28.3c3.8,12.6,2,25.6-3.8,36.3
	c-2.1,4-4.9,7.6-8,10.9l0,0l-0.1,0.1c-2.9,2.9-7.6,2.9-10.5,0s-2.9-7.6,0-10.5l0,0c12.8-12.8,12.8-33.6,0-46.5
	c-12.8-12.8-33.6-12.8-46.5,0L124.4,125.6z"/>
</svg>
