<svg id="Layer_1" xmlns="http://www.w3.org/2000/svg" viewBox="0 0 690 207"><path fill-rule="evenodd" clip-rule="evenodd" fill="#005aa9" d="M45.6 126.5c-6.5-12.6-13.9-25.5-22.3-38.9H.5v64.8H16v-47.5c5.8 9.6 13 23.6 21.7 42.2h13.1c8.1-16.6 15.7-30.6 22.7-42.2v47.5h15.6V87.6H67.6c-9.5 15.7-16.9 28.7-22 38.9zM136.8 86c-13.4 0-22 1.9-28.8 6.8-6.8 4.9-9.9 13.5-9.9 26.5 0 13.1 3.2 22 9.9 27.2 6.7 5.2 15.5 7.2 28.8 7.2 13.1 0 22-2 28.7-7.2 6.7-5.2 9.9-14.1 9.9-27.2 0-13-3.1-21.6-9.9-26.5-6.8-4.9-15.4-6.8-28.7-6.8zm0 54.1c-4.7 0-8.5-.2-11-.6-2.5-.5-4.6-1.4-6.2-3-3.3-3.1-3.9-7.5-3.9-16.9 0-8.9.8-13.7 3.8-16.5 1.8-1.8 5.5-2.7 9.5-3 2-.2 4.6-.3 7.8-.3 4.8 0 8.5.2 10.9.6 2.5.4 4.6 1.3 6.2 2.8 3.4 2.9 4 7.2 4 16.4 0 9-.7 14.1-3.9 17-3.2 2.7-8.2 3.6-17.2 3.5zm98.8-52.5v42.9c0 3.5-1.2 6-3.6 7.3-2.4 1.3-7.1 2-13.8 2-6.9 0-11.5-.7-13.9-2-2.4-1.4-3.6-3.8-3.6-7.3V87.6h-16.3v46.7c0 7.7 3.1 12.7 9.1 15.6 6.2 2.7 13.6 3.8 24.6 3.8 10.9 0 18.3-1.1 24.5-3.8 6.2-2.9 9.3-7.9 9.3-15.6V87.6h-16.3zm92.8 64.8v-13.1h-40.1c4.7-4.8 11.3-12.5 20-22.9 8.6-10.5 15.3-19 20.2-25.5v-3.3H263v13.1h37.9c-13.5 17-26.9 33.1-40.2 48.1v3.6h67.7zm10.5 0h58.5v-13.1h-42.3v-14.1h30.3v-12.8h-30.3v-11.6h42.3V87.6h-58.5v64.8zm84.9-47c12.5 15.2 24.1 30.9 34.7 47.1h21.3V87.6h-16.1v45.1c-11.4-16.6-22.6-31.6-33.5-45.1h-22.1v64.8h15.7v-47zm68 47H508V87.6h-16.2v64.8zm29.2 0h32.9c13.2 0 22.8-2.4 28.7-7.2 5.9-4.8 8.9-13.4 8.9-25.6 0-12.6-2.8-20.7-9.4-25.5-6.4-4.8-15-6.6-28.3-6.6H521v64.9zm53.1-32.5c-.3 10.2-1.1 14.8-6.6 17.4-3.7 1.5-7.9 2-15.8 2h-14.5v-38.5h14.5c5 0 8.8.2 11.3.6 2.6.3 4.8 1.2 6.7 2.6 3.7 2.6 4.4 6.9 4.4 15.9zm27.5 32.5h16.2V87.6h-16.2v64.8zm86.5-63.8c-6-1.8-14.3-2.6-24.6-2.6-24.1 0-34.8 6.3-34.8 22.2 0 11.6 7.5 16.6 24.5 18 17 1.6 18.8 2.9 19 7.3 0 2.5-1.2 4.3-3.6 5.1-2.3.8-7.1 1.2-14 1.2-8 0-15.3-.8-22-2.4l-2.9 13.6c6.2 1.8 14.7 2.6 25.2 2.6 12.7 0 21.8-1.6 27.1-4.6 5.3-3.1 8-8.6 8-16.5 0-12.4-7.8-18.1-25.9-19.7-15.9-1.5-17.6-2.3-17.9-6.8 0-2.5 1.1-4.2 3.4-5 2.3-.8 7-1.3 13.8-1.3 7.7 0 15.1.7 22.1 2.3l2.6-13.4zM460.4 178.9v-7.2h-38.9v7.2h15v28.3h8.9v-28.3h15zm8.2 28.3h8.8v-12.6h5.5c1.6 0 3.4.9 5.2 2.7 1.9 1.8 4.7 5.1 8.2 9.9h11.6c-4.2-5.5-7.4-9.4-9.3-11.4-2-2.1-3.6-3.4-5-3.8 7.2-.3 10.7-3.6 10.7-9.9 0-6.9-3.9-10.4-11.6-10.4h-24.3v35.5h.2zm21.2-28.5c3 0 4.6 1.4 4.6 4.6 0 3.4-1.4 4.5-4.8 4.5h-12.2v-9.1h12.4zm70.3 28.5c-2.5-4.7-5.2-10.5-8.2-17.2-3-6.8-5.5-12.8-7.6-18.2h-14.7c-2.6 5.1-5.4 11-8.5 17.8-3.1 6.8-5.5 12.7-7.4 17.6h9.8c1.1-3.2 2.1-5.8 2.9-7.8h20c1.5 3.4 2.7 6 3.7 7.8h10zM538 178.8c1.8 5 3.6 9.5 5.3 13.4H529c2-5.1 4-9.6 5.8-13.4h3.2zm42.6 20.6c1.8-3.7 3.9-8.3 6.3-13.8 2.3-5.5 4.2-10.1 5.5-13.9h9.7c-1.8 4.9-4.3 10.8-7.4 17.6-3.1 6.8-6 12.8-8.7 17.8h-12c-2.2-5.7-4.8-12-7.8-18.7-3-6.7-5.7-12.3-8.2-16.8h10.1c4.7 9 8.9 18.2 12.5 27.8zm30.1 7.8h32V200h-23.1v-7.7h16.6v-7h-16.6v-6.4h23.1v-7.2h-32v35.5zm44.5 0h29.1V200h-20.2v-28.2h-8.8v35.4z"/><path d="M447.5 38.1c17.7 10.1 40.6 27.5 53.2 28.4 24 1.6 13.1-22.1 5.3-37.6-2.3-4.7.6-3.2 4.3-.8 14 9.1 26.3 24 36.7 34.6 4.7 4.6 12.7 5 17.8.7 13-11.1-19.4-36.4-28.1-43.2-20.6-16-47-29.7-56.2-10.4-4.9 10.2 4.1 22.1 10.5 32.7-12.3-7.2-32-19-46.4-22.6-26.2-6.5-17.1 15.4-10 28.3-17.8-8-50.5-24.8-54.1-10.4-1.3 5.2 4.5 12.8 9.5 18.9 3.2 3.9 4 4.4-1.4 4-6.9-.5-16.8-2.6-24.1-3.6-5.9-.8-4.9.5-1 2.2 7.9 3.5 31.2 12.7 37.6 7 4.9-4.3-3.3-15.9-7.6-22.4 12.4 5.7 29 14.6 36.1 17.4 33.2 13.3 24.3-9.5 17.9-23.2z" fill-rule="evenodd" clip-rule="evenodd" fill="#00b9bd"/><path d="M609.7 68c15.2 0 27.6-12.4 27.6-27.6 0-15.2-12.4-27.6-27.6-27.6s-27.6 12.4-27.6 27.6c0 15.2 12.4 27.6 27.6 27.6z" fill-rule="evenodd" clip-rule="evenodd" fill="#f6921e"/></svg>