<?xml version="1.0" encoding="utf-8"?>
<svg version="1.1" id="Layer_1" xmlns="http://www.w3.org/2000/svg" xmlns:xlink="http://www.w3.org/1999/xlink" x="0px" y="0px"
	 viewBox="0 0 690 207" style="enable-background:new 0 0 690 207;" xml:space="preserve">
<style type="text/css">
	.st0{fill-rule:evenodd;clip-rule:evenodd;fill:#FFFFFF;}
	.st1{fill-rule:evenodd;clip-rule:evenodd;fill:#00B9BD;}
	.st2{fill-rule:evenodd;clip-rule:evenodd;fill:#F6921E;}
</style>
<g>
	<path class="st0" d="M45.6,126.5c-6.5-12.6-13.9-25.5-22.3-38.9H0.5v64.8H16v-47.5c5.8,9.6,13,23.6,21.7,42.2h13.1
		c8.1-16.6,15.7-30.6,22.7-42.2v47.5h15.6V87.6H67.6C58.1,103.3,50.7,116.3,45.6,126.5L45.6,126.5z M136.8,86
		c-13.4,0-22,1.9-28.8,6.8c-6.8,4.9-9.9,13.5-9.9,26.5c0,13.1,3.2,22,9.9,27.2c6.7,5.2,15.5,7.2,28.8,7.2c13.1,0,22-2,28.7-7.2
		c6.7-5.2,9.9-14.1,9.9-27.2c0-13-3.1-21.6-9.9-26.5C158.7,87.9,150.1,86,136.8,86L136.8,86z M136.8,140.1c-4.7,0-8.5-0.2-11-0.6
		c-2.5-0.5-4.6-1.4-6.2-3c-3.3-3.1-3.9-7.5-3.9-16.9c0-8.9,0.8-13.7,3.8-16.5c1.8-1.8,5.5-2.7,9.5-3c2-0.2,4.6-0.3,7.8-0.3
		c4.8,0,8.5,0.2,10.9,0.6c2.5,0.4,4.6,1.3,6.2,2.8c3.4,2.9,4,7.2,4,16.4c0,9-0.7,14.1-3.9,17C150.8,139.3,145.8,140.2,136.8,140.1
		L136.8,140.1z M235.6,87.6v42.9c0,3.5-1.2,6-3.6,7.3c-2.4,1.3-7.1,2-13.8,2c-6.9,0-11.5-0.7-13.9-2c-2.4-1.4-3.6-3.8-3.6-7.3V87.6
		h-16.3v46.7c0,7.7,3.1,12.7,9.1,15.6c6.2,2.7,13.6,3.8,24.6,3.8c10.9,0,18.3-1.1,24.5-3.8c6.2-2.9,9.3-7.9,9.3-15.6V87.6H235.6
		L235.6,87.6z M328.4,152.4v-13.1h-40.1c4.7-4.8,11.3-12.5,20-22.9c8.6-10.5,15.3-19,20.2-25.5v-3.3H263v13.1h37.9
		c-13.5,17-26.9,33.1-40.2,48.1v3.6H328.4L328.4,152.4z M338.9,152.4h58.5v-13.1h-42.3v-14.1h30.3v-12.8h-30.3v-11.6h42.3V87.6
		h-58.5V152.4L338.9,152.4z M423.8,105.4c12.5,15.2,24.1,30.9,34.7,47.1h21.3V87.6h-16.1v45.1c-11.4-16.6-22.6-31.6-33.5-45.1h-22.1
		v64.8h15.7V105.4L423.8,105.4z M491.8,152.4H508V87.6h-16.2V152.4L491.8,152.4z M521,152.4h32.9c13.2,0,22.8-2.4,28.7-7.2
		c5.9-4.8,8.9-13.4,8.9-25.6c0-12.6-2.8-20.7-9.4-25.5c-6.4-4.8-15-6.6-28.3-6.6H521V152.4L521,152.4z M574.1,119.9
		c-0.3,10.2-1.1,14.8-6.6,17.4c-3.7,1.5-7.9,2-15.8,2h-14.5v-38.5h14.5c5,0,8.8,0.2,11.3,0.6c2.6,0.3,4.8,1.2,6.7,2.6
		C573.4,106.6,574.1,110.9,574.1,119.9L574.1,119.9z M601.6,152.4h16.2V87.6h-16.2V152.4L601.6,152.4z M688.1,88.6
		c-6-1.8-14.3-2.6-24.6-2.6c-24.1,0-34.8,6.3-34.8,22.2c0,11.6,7.5,16.6,24.5,18c17,1.6,18.8,2.9,19,7.3c0,2.5-1.2,4.3-3.6,5.1
		c-2.3,0.8-7.1,1.2-14,1.2c-8,0-15.3-0.8-22-2.4l-2.9,13.6c6.2,1.8,14.7,2.6,25.2,2.6c12.7,0,21.8-1.6,27.1-4.6
		c5.3-3.1,8-8.6,8-16.5c0-12.4-7.8-18.1-25.9-19.7c-15.9-1.5-17.6-2.3-17.9-6.8c0-2.5,1.1-4.2,3.4-5c2.3-0.8,7-1.3,13.8-1.3
		c7.7,0,15.1,0.7,22.1,2.3L688.1,88.6z"/>
	<path class="st0" d="M460.4,178.9v-7.2h-38.9v7.2h15v28.3h8.9v-28.3H460.4L460.4,178.9z M468.6,207.2h8.8v-12.6h5.5
		c1.6,0,3.4,0.9,5.2,2.7c1.9,1.8,4.7,5.1,8.2,9.9h11.6c-4.2-5.5-7.4-9.4-9.3-11.4c-2-2.1-3.6-3.4-5-3.8c7.2-0.3,10.7-3.6,10.7-9.9
		c0-6.9-3.9-10.4-11.6-10.4h-24.3V207.2L468.6,207.2z M489.8,178.7c3,0,4.6,1.4,4.6,4.6c0,3.4-1.4,4.5-4.8,4.5h-12.2v-9.1H489.8
		L489.8,178.7z M560.1,207.2c-2.5-4.7-5.2-10.5-8.2-17.2c-3-6.8-5.5-12.8-7.6-18.2h-14.7c-2.6,5.1-5.4,11-8.5,17.8
		c-3.1,6.8-5.5,12.7-7.4,17.6h9.8c1.1-3.2,2.1-5.8,2.9-7.8h20c1.5,3.4,2.7,6,3.7,7.8H560.1L560.1,207.2z M538,178.8
		c1.8,5,3.6,9.5,5.3,13.4H529c2-5.1,4-9.6,5.8-13.4H538L538,178.8z M580.6,199.4c1.8-3.7,3.9-8.3,6.3-13.8
		c2.3-5.5,4.2-10.1,5.5-13.9h9.7c-1.8,4.9-4.3,10.8-7.4,17.6c-3.1,6.8-6,12.8-8.7,17.8H574c-2.2-5.7-4.8-12-7.8-18.7
		c-3-6.7-5.7-12.3-8.2-16.8h10.1C572.8,180.6,577,189.8,580.6,199.4L580.6,199.4z M610.7,207.2h32V200h-23.1v-7.7h16.6v-7h-16.6
		v-6.4h23.1v-7.2h-32V207.2L610.7,207.2z M655.2,207.2h29.1v-7.2h-20.2v-28.2h-8.8V207.2z"/>
	<path class="st1" d="M447.5,38.1c17.7,10.1,40.6,27.5,53.2,28.4c24,1.6,13.1-22.1,5.3-37.6c-2.3-4.7,0.6-3.2,4.3-0.8
		c14,9.1,26.3,24,36.7,34.6c4.7,4.6,12.7,5,17.8,0.7c13-11.1-19.4-36.4-28.1-43.2c-20.6-16-47-29.7-56.2-10.4
		c-4.9,10.2,4.1,22.1,10.5,32.7c-12.3-7.2-32-19-46.4-22.6c-26.2-6.5-17.1,15.4-10,28.3c-17.8-8-50.5-24.8-54.1-10.4
		c-1.3,5.2,4.5,12.8,9.5,18.9c3.2,3.9,4,4.4-1.4,4c-6.9-0.5-16.8-2.6-24.1-3.6c-5.9-0.8-4.9,0.5-1,2.2c7.9,3.5,31.2,12.7,37.6,7
		c4.9-4.3-3.3-15.9-7.6-22.4c12.4,5.7,29,14.6,36.1,17.4C462.8,74.6,453.9,51.8,447.5,38.1z"/>
	<path class="st2" d="M609.7,68c15.2,0,27.6-12.4,27.6-27.6c0-15.2-12.4-27.6-27.6-27.6s-27.6,12.4-27.6,27.6
		C582.1,55.6,594.5,68,609.7,68z"/>
</g>
</svg>
