<svg id="Group_1808" data-name="Group 1808" xmlns="http://www.w3.org/2000/svg" xmlns:xlink="http://www.w3.org/1999/xlink" width="130.5" height="144.23" viewBox="0 0 130.5 144.23">
  <defs>
    <linearGradient id="linear-gradient" x1="0.033" y1="1.247" x2="1.068" y2="-0.089" gradientUnits="objectBoundingBox">
      <stop offset="0" stop-color="#946631"/>
      <stop offset="1" stop-color="#e6c37c"/>
    </linearGradient>
    <clipPath id="clip-path">
      <rect id="Rectangle_10" data-name="Rectangle 10" width="130.5" height="144.23" fill="url(#linear-gradient)"/>
    </clipPath>
  </defs>
  <g id="Group_2" data-name="Group 2">
    <g id="Group_1" data-name="Group 1" clip-path="url(#clip-path)">
      <rect id="Rectangle_9" data-name="Rectangle 9" width="130.5" height="144.23" fill="url(#linear-gradient)"/>
    </g>
  </g>
  <g id="Group_3" data-name="Group 3" transform="translate(27.472 27.039)">
    <path id="Path_1" data-name="Path 1" d="M85.485,49.684a12.138,12.138,0,1,0-17.16-.012,12.142,12.142,0,0,0,17.16.012M81.918,57.97a17.591,17.591,0,1,1,10.462-8.482A17.612,17.612,0,0,1,81.918,57.97Z" transform="translate(-18.526 -23.494)" fill="#fff"/>
    <path id="Path_2" data-name="Path 2" d="M52.734,33.825A4.48,4.48,0,0,1,48.257,38.3V43.78a9.956,9.956,0,0,0,.207-19.91H26.413a2.747,2.747,0,0,0,0,5.478H48.257v.012a4.5,4.5,0,0,1,3.165,1.312,4.454,4.454,0,0,1,1.312,3.153" transform="translate(-23.87 -23.437)" fill="#fff"/>
    <path id="Path_3" data-name="Path 3" d="M58.213,46.365a9.945,9.945,0,0,0-9.737-9.955H26.413a2.747,2.747,0,0,0,0,5.478H48.257a4.48,4.48,0,0,1,4.477,4.477,4.48,4.48,0,0,1-4.477,4.477v.012H26.413a2.747,2.747,0,0,0,0,5.478H48.476a9.945,9.945,0,0,0,9.737-9.967" transform="translate(-23.87 -21.545)" fill="#fff"/>
    <path id="Path_4" data-name="Path 4" d="M33.825,65.157A4.48,4.48,0,0,1,38.3,69.634H43.78a9.956,9.956,0,0,0-19.91-.207v22.04a2.747,2.747,0,0,0,5.478,0V69.622h.012a4.5,4.5,0,0,1,1.312-3.165,4.444,4.444,0,0,1,3.153-1.3" transform="translate(-23.87 -18.032)" fill="#fff"/>
    <path id="Path_5" data-name="Path 5" d="M46.365,59.68a9.945,9.945,0,0,0-9.955,9.737V91.468a2.747,2.747,0,0,0,5.478,0V69.624a4.479,4.479,0,0,1,4.477-4.477,4.479,4.479,0,0,1,4.477,4.477h.012V91.468a2.747,2.747,0,0,0,5.478,0V69.405a9.925,9.925,0,0,0-9.967-9.725" transform="translate(-21.978 -18.034)" fill="#fff"/>
    <path id="Path_6" data-name="Path 6" d="M95.651,108.153c1.381,0,2.359-.737,2.359-1.968v-.023c0-1.093-.714-1.588-2.106-1.934-1.278-.3-1.577-.529-1.577-1.036v-.023c0-.437.391-.783,1.07-.783a3.069,3.069,0,0,1,1.8.679l.621-.875a3.623,3.623,0,0,0-2.394-.829,2.02,2.02,0,0,0-2.256,1.911v.023c0,1.208.794,1.634,2.2,1.968,1.22.288,1.485.541,1.485,1.013v.023c0,.483-.449.829-1.174.829a3.047,3.047,0,0,1-2.083-.863l-.7.829a4.112,4.112,0,0,0,2.762,1.059m-14.985-.092h4.627V107H81.829v-5.536H80.667Zm-14.57,0h4.937v-1.036H67.259v-1.772h3.3v-1.036h-3.3V102.5h3.729v-1.036H66.1v6.595Zm-12.441,0h1.162v-5.524h2.095v-1.07H51.561v1.07h2.095Zm-13.2-.967a2.254,2.254,0,0,1-2.244-2.336v-.023a2.225,2.225,0,0,1,2.221-2.325,2.264,2.264,0,0,1,2.244,2.348v.023A2.216,2.216,0,0,1,40.454,107.094Zm-.023,1.07a3.383,3.383,0,0,0,3.464-3.407v-.023a3.453,3.453,0,0,0-6.905.012v.023A3.347,3.347,0,0,0,40.431,108.165Zm-16.561-.1h1.162v-2.785h3.142v2.785h1.162v-6.595H28.174v2.739H25.032v-2.739H23.87Z" transform="translate(-23.87 -11.747)" fill="#fff"/>
    <path id="Path_7" data-name="Path 7" d="M68.324,85.475a12.138,12.138,0,1,0,.012-17.16,12.142,12.142,0,0,0-.012,17.16m-8.3-3.568a17.592,17.592,0,1,1,8.482,10.462A17.612,17.612,0,0,1,60.026,81.908Z" transform="translate(-18.525 -18.095)" fill="#fff"/>
  </g>
</svg>
