<?xml version="1.0" encoding="utf-8"?>
<!-- Generator: Adobe Illustrator 23.1.0, SVG Export Plug-In . SVG Version: 6.00 Build 0)  -->
<svg version="1.1" id="Layer_1" xmlns="http://www.w3.org/2000/svg" xmlns:xlink="http://www.w3.org/1999/xlink" x="0px" y="0px"
	 viewBox="0 0 306.7 192.4" style="enable-background:new 0 0 306.7 192.4;" xml:space="preserve">
<style type="text/css">
	.st0{fill-rule:evenodd;clip-rule:evenodd;fill:#B7A498;}
	.st1{fill:#B7A498;}
</style>
<g>
	<path class="st0" d="M63,99.1h10.9c-0.2,4.2-0.4,9.3-0.4,15.3c0,23.3,1.9,34,1.9,34s1.9-10.7,1.9-34c0-6.2-0.2-11.3-0.4-15.3H88
		v5.3h-6.2v46.9h24.3l2.1-9.5h4.1v14.8c-16.6,0-33.1,0-49.5,0v-5.3H69v-46.9h-6.2v-5.3H63z M124.8,99.1h10.9
		c-0.2,4.2-0.4,9.3-0.4,15.3c0,23.3,1.9,34,1.9,34s1.9-10.7,1.9-34c0-6.2-0.2-11.3-0.4-15.3h10.9v5.3h-6.2v46.9h6.2v5.3
		c-8.3,0-16.7,0-25,0v-5.3h6.2v-46.9h-6.2V99.1z M281.1,99.1H292c-0.2,4.2-0.4,9.3-0.4,15.3c0,23.3,1.9,34,1.9,34s1.9-10.7,1.9-34
		c0-6.2-0.2-11.3-0.4-15.3h10.9v5.3h-6.2v52.3h-12.9V150l-27.3-34.7v36.1h6.2v5.3c-8.3,0-16.7,0-25,0v-5.3h6.2v-47h-6.2v-5.3h10.9
		c-0.2,4.2-0.4,9.3-0.4,15.3c0,23.3,1.9,34,1.9,34s1.9-10.7,1.9-34c0-6.2-0.2-11.3-0.4-15.3h4.9v4.9l27.3,35.8v-35.2h-6.2
		L281.1,99.1L281.1,99.1z M167.1,156.7H190v-5.1c-18-12.2-12.5-47.6,7.2-47.9c19.6,0.4,25.2,35.8,7.2,47.9v5.1h22.9v-5.3H217
		c18-16.9,12.9-48.8-11.8-54.6c14.6,5.1,21.8,22.5,15.7,39.8c3-10.2,0.7-20.3-5.1-27.3c-10-12.5-26.2-12.9-36.6,0
		c-5.8,7-7.9,17.1-5.1,27.5c-6.3-17.3,0.9-34.9,15.7-39.8c-24.7,6-29.9,37.7-11.8,54.6h-10.4v5.1H167.1z M49.3,156.7v-14.8h-4.1
		l-2.1,9.5H18.4v-21.1h13.4v-8.1H18.4v-17.6h24.7l2.1,9.5h4.1V99.2H13.5l0,0c0.2,4.2,0.4,9.3,0.4,15.3c0,23.3-1.9,34-1.9,34
		s-1.9-10.7-1.9-34c0-6.2,0.2-11.3,0.4-15.3l0,0H-0.6v5.3h6.2v46.9h-6.2v5.3C16,156.7,32.5,156.7,49.3,156.7z"/>
	<path class="st1" d="M60.4,93.6c1.8-4.6,5.1-10.4,9.9-16.4c1.8-2.3,3.5-4.4,5.6-6.7c7.4-9.9-1.1-37.2,24.1-49.8
		c0.9,15.5-8.8,31.5-16.7,39.5c1.8-5.3,6.7-19.7,7.6-23.4c0.2-1.1,0.2-1.2-0.4-0.2c-1.6,2.6-2.8,6.2-3.9,9.3c-2.5,7.2-4.2,14.8-7,21
		c5.6-5.6,12.3-11.3,19.7-16c10.2-11.8,16.7-20.1,25-29.6c5.6-6.5,3.7-5.3-3.2,1.9c-7.4,7.9-14.1,16.4-17.6,20.8
		c3-10.4,15-32.4,29.8-34.5c3-0.4,4.4-0.9,2.8,2.5c-9,17.8-21.1,24.3-34.2,37.2c3.3-2.1,8.1-4.6,11.8-6.3c4.1-1.8,8.3-3.3,12.7-4.8
		c4.9-6.7,19-39.5,36.3-37.9c-0.7,4.1-3,8.5-7,13.2c-2.5,3-4.9,5.5-5.6,6c-6.5,6-10.7,8.1-16,12.7c7.2-10.6,13.9-18,17.4-21.5
		c3.7-3.9,1.9-2.5-0.9,0c-3,2.6-7,7-7.8,7.9c-5.6,6.7-12.2,15.5-14.1,18.5c3.5-0.9,7.4-1.8,11.1-2.3l6.5-5.1
		c-1.1-2.3,3.2-13,10.4-12.9c1.4,0,2.6,0.5,3.9,1.1c1.8,3.5,0,7.6-3.5,10s-8.3,2.5-10,2.6l-5.3,4.1c3-0.4,5.8-0.5,8.8-0.5l0,0
		c0,0,24.7-13.2,30.1-15.3c3.5-1.4,1.8-1.1-0.5-0.4c-7.4,2.1-16,7.4-22.7,10.9c0.2-0.2,0.2-0.2,0.4-0.4c4.2-3.3,16.9-19.4,39.8-15.3
		c2.1,0.4,5.3,1.1,1.2,3c-3.5,1.8-22.4,9.3-34.9,13.2c-6.7,2.1-9.7,3.3-11.1,4.1c4.9,0.2,10,0.7,15.1,1.6c1.4-0.5,3.7-1.2,5.8-2.3
		c0.7-1.6,3.7-7.2,9.7-8.8c3.3-0.9,9.5-1.2,11.3,2.5c0.9,1.8-0.5,6.5-8.6,7.9c-5.5,1.1-9.2,0.2-11.1-0.5c-1.6,0.2-3.5,0.7-5.3,1.6
		c1.9,0.4,3.5,0.9,5.6,1.4c13.7,0,26.6,0.9,40.5,2.6c10.4,1.4,0.2-1.6-10.2-2.3c-10.4-0.7-14.6-0.5-18-0.9
		c6.2-2.1,14.1-4.1,23.8-3.2c8.6,0.7,24.7,6.5,24.1,9.7c-0.9,5.1-47.9-4.9-56.2-4.8c6.2,2.1,12,4.8,17.6,7.8c1.1,0.2,3,0.5,6.2,0.9
		c7.2,0.9,40.9,4.6,43,16.4c0.2,1.1-7.6,2.5-20.8-4.4c-8.5-4.4-12.9-6.5-16.4-8.1c4.6,0.2,34.2,8.8,18.1,3.5
		c-13.9-4.6-25-6.2-25-6.2c-0.7-0.2-1.4-0.2-1.9-0.4c4.9,2.8,9.9,6.2,14.8,9.9c9.2,4.1,13.7,6.2,20.4,15c6,7.8,10,20.4,6.2,21.1
		c-8.8,1.6-24.1-26.2-27.5-33.6c3.7,2.3,9.3,7.8,14.1,12.9c0.9,1.1,8.6,10.7,8.6,10.7c1.8,1.1-6.5-9.7-8.1-11.4
		c-7.2-8.1-16.4-14.4-25.2-20.4c0,0.2,0.2,0.4,0.2,0.4s6.3,18.7,7.6,22.2c1.2,3.5,1.1,1.6,0.4-1.1c-0.7-2.6-4.6-13.7-5.6-17.3
		c1.8,2.3,4.2,4.8,8.1,11.4c4.6,7.8,3.9,16.4,3.5,19.6c-0.4,2.5-1.1,2.5-3,0.9c-6.9-5.5-10.4-20.8-11.1-29.6
		c-0.2-2.6-0.7-5.8-1.9-7.8c-7.8-4.6-15.5-8.5-22-10.6c-5.5-1.8-10.6-3-15.5-3.9c1.9,0.7,4.8,1.9,8.6,3.7
		c11.1,5.1,21.3,13.4,28.5,24.3s-7.6,2.3-18.3-5.3c-10.4-7.2-12.7-13.4-14.8-17.8c3.2,1.9,9.7,6.2,13.9,9.3c6,4.6,13.7,11.3,6.5,4.4
		c-5.8-5.6-18.5-13.9-22.9-16.7c-0.5-0.4-1.1-0.7-1.6-1.1l0,0c-1.4-0.9-3-1.4-4.4-1.8c-4.9-0.5-9.9-0.5-14.6-0.2
		c2.8,1.8,4.6,2.5,7.4,3.9c3.2-1.1,7.9-0.5,10.6,1.6c4.8,3.5,3.3,6.7,3.3,6.7s-3.3,3-8.8,0.2c-4.2-2.1-4.9-5.8-5.1-7.6
		c-2.8-1.6-7.6-3.9-10.9-4.6c-6.7,0.9-13,2.5-19.2,4.6c2.3,0.2,4.9,0.7,8.5,1.6c18.3,4.4,32.8,5.1,47.9,17.8c7.2,6-8.8,3.2-21.8-1.4
		c-13-4.6-20.3-10-27-14.1c2.1,0.5,44.2,14.8,28.4,8.6c-9.5-3.7-28.7-10.9-40-11.1c-1.1,0.4-2.1,0.9-3.3,1.2
		c-5.5,2.5-10.6,5.3-15.3,8.5c11.1-1.4,44.9-2.1,53,7.2c1.1,1.1-4.6,2.1-11.4,2.6c-18.3,1.2-31.4-5.8-35.2-7.6
		c0.7-0.2,35.2,2.8,26.2,1.4c-6.9-1.1-25-3.3-34.5-2.5c-3.5,2.5-6.9,5.1-10,7.8c1.9-0.4,14.1-2.3,26.4-0.5
		c13.2,1.9,21.5,8.6,27.5,14.1c13.6,12.2-44.2-8.5-47.2-11.4c4.1-1.1,17.8,1.6,22.4,2.6c0,0,16.4,3.7,0.2-0.7
		c-7.4-2.1-23.6-4.6-31.7-1.9c-3.9,3.5-7.4,7.2-10.4,10.7c9.7-1.2,39.5-4.6,43.9,5.8c0.5,1.1-6.7,4.2-21.1,0.7
		c-9.3-2.1-14.3-3.9-18-4.6c11.6-0.7,15-0.5,19.7-0.4c3.2,0.2,2.3-0.2,0-0.4c-8.6-0.9-17.3-0.4-25.9,0.4c-0.5,0.7-1.2,1.4-1.8,2.1
		c-4.2,5.5-7.4,10.7-9.3,15.1L60.4,93.6z"/>
	<path class="st1" d="M217.1,188.9V184h3.5c3.5,0,5.3,0.7,5.3,2.3c0,1.8-1.8,2.5-5.3,2.5h-3.5V188.9z M217.1,181v-4.2h3
		c3,0,4.4,0.5,4.4,1.9c0,1.4-1.4,2.3-4.4,2.3H217.1z M210.8,192.1h10.4c6.2,0,10.9-1.8,10.9-5.5c0-2.5-2.1-3.9-6.2-4.4V182
		c3.3-0.5,4.8-2.3,4.8-4.1c0-3.5-4.6-4.6-10.4-4.6h-9.5V192.1z M159.5,183.4c0,6.3,3.9,9,11.1,9c7.2,0,11.1-2.6,11.1-9v-10h-6.2
		v10.4c0,3.7-1.8,4.9-4.9,4.9s-4.9-1.2-4.9-4.9v-10.4h-6.3v10H159.5z M117.6,192.1H135v-3.5h-11.1v-15.1h-6.3V192.1z M69,182.9
		c0,6.3,6,9.5,13.2,9.5c3.5,0,6.5-0.9,8.8-2.8l-3.5-2.5c-1.4,1.1-3,1.6-5.3,1.6c-4.1,0-6.9-2.3-6.9-6s3-6,6.9-6
		c1.9,0,3.3,0.5,4.8,1.4l3.5-2.6c-1.9-1.2-4.8-2.5-8.3-2.5C75.2,173,69,176.7,69,182.9z"/>
</g>
</svg>
