<?xml version="1.0" encoding="utf-8"?>
<!-- Generator: Adobe Illustrator 23.1.0, SVG Export Plug-In . SVG Version: 6.00 Build 0)  -->
<svg version="1.1" id="Layer_1" xmlns="http://www.w3.org/2000/svg" xmlns:xlink="http://www.w3.org/1999/xlink" x="0px" y="0px"
	 viewBox="0 0 512 392" style="enable-background:new 0 0 512 392;" xml:space="preserve">
<style type="text/css">
	.st0{fill:#DADBDC;}
	.st1{fill:#F3F4F4;}
</style>
<rect x="-179.4" y="-219.3" class="st0" width="855.4" height="854.5"/>
<g transform="translate(-5.000000, -5.000000)">
	<path class="st1" d="M-203.9-244.6h914.2v914.2h-914.2V-244.6L-203.9-244.6z M356.8,137.6l-12-70.4L98.2,110.4l36.1,205.9l24.5-4.1
		v17.7h250.4V137.6H356.8L356.8,137.6z M158.8,291.5l-7.9,1.5l-29.4-166l206.7-36.5l8.3,47.1H158.8V291.5L158.8,291.5L158.8,291.5z
		 M388.8,309.6H179.1V157.9h209.7V309.6L388.8,309.6z M192.7,171.4V284l42.5-28.2l26.4,16.6l64-70.4l8.3,3.4l41.4,47.8v-81.7H192.7
		L192.7,171.4L192.7,171.4z M233.3,220c-9.8,0-18.1-8.3-18.1-18.1c0-9.8,8.3-18.1,18.1-18.1c9.8,0,18.1,8.3,18.1,18.1
		C251.4,211.7,243.1,220,233.3,220L233.3,220L233.3,220z"/>
</g>
</svg>
