<?xml version="1.0" encoding="utf-8"?>
<!-- Generator: Adobe Illustrator 22.1.0, SVG Export Plug-In . SVG Version: 6.00 Build 0)  -->
<svg version="1.1" id="Layer_1" xmlns="http://www.w3.org/2000/svg" xmlns:xlink="http://www.w3.org/1999/xlink" x="0px" y="0px"
	 viewBox="0 0 427 238" style="enable-background:new 0 0 427 238;" xml:space="preserve">
<style type="text/css">
	.st0{fill:#E8F9F8;}
	.st1{fill:#BEF2EF;}
	.st2{fill:#148A98;}
	.st3{fill:none;}
	.st4{fill:#AFE0DC;}
	.st5{fill:#66CFD8;}
	.st6{fill:#FF8B15;}
	.st7{fill:#FFFFFF;}
</style>
<path class="st0" d="M18.6,55.9h374.9c9.8,0,17.8,8,17.8,17.8l0,0c0,9.8-8,17.8-17.8,17.8h-73.3c-8.5,0-15.5,6.9-15.5,15.5l0,0
	c0,8.5,6.9,15.5,15.5,15.5h89.7c9.4,0,17.1,7.7,17.1,17.1v0c0,9.4-7.7,17.1-17.1,17.1H365l0,0c0,17.1-13.9,31-31,31l0,0
	c-7.6,0-13.7,6.1-13.7,13.7v36.5H123.4v-3c0-18.2-14.7-33-32.9-33.2l-56.8-0.7c-10.4-0.1-18.8-8.6-18.8-19l0,0c0-10.5,8.5-19,19-19
	h56.7l0,0c0-17.3,14-31.3,31.3-31.3h2.7c10.5,0,19-8.5,19-19l0,0c0-10.5-8.5-19-19-19h-106c-10.4,0-18.9-8.4-18.9-18.9l0,0
	C-0.3,64.3,8.1,55.9,18.6,55.9z"/>
<path class="st1" d="M69.6,107.1c0,1.4-1.1,2.5-2.5,2.5c-1.4,0-2.5-1.1-2.5-2.5c0-1.4,1.1-2.5,2.5-2.5
	C68.5,104.6,69.6,105.7,69.6,107.1z"/>
<path id="XMLID_153_" class="st1" d="M217.7,189.3H209c-0.8,0-1.5-0.7-1.5-1.5c0-0.8,0.7-1.5,1.5-1.5h8.7c0.8,0,1.5,0.7,1.5,1.5
	C219.3,188.6,218.6,189.3,217.7,189.3z"/>
<path id="XMLID_151_" class="st1" d="M213.4,193.7c-0.8,0-1.5-0.7-1.5-1.5v-8.7c0-0.8,0.7-1.5,1.5-1.5c0.8,0,1.5,0.7,1.5,1.5v8.7
	C214.9,193,214.2,193.7,213.4,193.7z"/>
<path id="XMLID_143_" class="st1" d="M210.3,104.1c-0.4,0-0.8-0.1-1.1-0.4c-0.6-0.6-0.6-1.6,0-2.2l6.2-6.2c0.6-0.6,1.6-0.6,2.2,0
	c0.6,0.6,0.6,1.6,0,2.2l-6.2,6.2C211,104,210.7,104.1,210.3,104.1z"/>
<path id="XMLID_141_" class="st1" d="M216.4,104.1c-0.4,0-0.8-0.1-1.1-0.4l-6.2-6.2c-0.6-0.6-0.6-1.6,0-2.2c0.6-0.6,1.6-0.6,2.2,0
	l6.2,6.2c0.6,0.6,0.6,1.6,0,2.2C217.2,104,216.8,104.1,216.4,104.1z"/>
<path id="XMLID_138_" class="st1" d="M210.3,131.3c-0.4,0-0.8-0.1-1.1-0.4c-0.6-0.6-0.6-1.6,0-2.2l6.2-6.2c0.6-0.6,1.6-0.6,2.2,0
	c0.6,0.6,0.6,1.6,0,2.2l-6.2,6.2C211,131.1,210.7,131.3,210.3,131.3z"/>
<path id="XMLID_136_" class="st1" d="M216.4,131.3c-0.4,0-0.8-0.1-1.1-0.4l-6.2-6.2c-0.6-0.6-0.6-1.6,0-2.2c0.6-0.6,1.6-0.6,2.2,0
	l6.2,6.2c0.6,0.6,0.6,1.6,0,2.2C217.2,131.1,216.8,131.3,216.4,131.3z"/>
<rect id="XMLID_129_" x="187.9" y="98" class="st1" width="51" height="3.1"/>
<path class="st1" d="M215.9,194.2c0,1.4-1.1,2.5-2.5,2.5c-1.4,0-2.5-1.1-2.5-2.5c0-1.4,1.1-2.5,2.5-2.5
	C214.7,191.7,215.9,192.8,215.9,194.2z"/>
<path class="st1" d="M215,139.3c0,0.9-0.8,1.7-1.7,1.7c-0.9,0-1.7-0.8-1.7-1.7c0-0.9,0.8-1.7,1.7-1.7
	C214.3,137.6,215,138.3,215,139.3z"/>
<path class="st1" d="M216.6,151.1c0,1.8-1.5,3.3-3.3,3.3c-1.8,0-3.3-1.5-3.3-3.3c0-1.8,1.5-3.3,3.3-3.3
	C215.2,147.9,216.6,149.3,216.6,151.1z"/>
<path class="st1" d="M216.6,201.4c0,1.8-1.5,3.3-3.3,3.3c-1.8,0-3.3-1.5-3.3-3.3c0-1.8,1.5-3.3,3.3-3.3
	C215.2,198.2,216.6,199.6,216.6,201.4z"/>
<rect id="XMLID_7_" x="33.5" y="235.3" class="st2" width="5.6" height="3.1"/>
<rect id="XMLID_5_" x="380.9" y="235.3" class="st2" width="12.4" height="3.1"/>
<rect id="XMLID_3_" x="42.8" y="235.3" class="st2" width="334.8" height="3.1"/>
<path class="st1" d="M152.8,69c0,0.9-0.8,1.7-1.7,1.7c-0.9,0-1.7-0.8-1.7-1.7c0-0.9,0.8-1.7,1.7-1.7C152,67.3,152.8,68.1,152.8,69z"
	/>
<path id="XMLID_303_" class="st3" d="M141,69c2.7,0,4.8-2.2,4.8-4.8c0-2.7-2.2-4.8-4.8-4.8s-4.8,2.2-4.8,4.8
	C136.2,66.9,138.4,69,141,69z"/>
<path id="XMLID_302_" class="st3" d="M251.1,195.5c-1.4,1.6-2.3,3.7-2.3,6c0,4.8,3.9,8.8,8.8,8.8s8.8-3.9,8.8-8.8
	c0-2.3-0.9-4.4-2.3-6H251.1z"/>
<path id="XMLID_301_" class="st3" d="M294.7,74.7c3.6,0,6.5-2.9,6.5-6.5c0-3.6-2.9-6.5-6.5-6.5c-3.6,0-6.5,2.9-6.5,6.5
	C288.1,71.8,291.1,74.7,294.7,74.7z"/>
<path id="XMLID_300_" class="st3" d="M213.1,42.5c-17.6,0-31.8,14.3-31.8,31.8v17.3h63.7V74.4C244.9,56.8,230.6,42.5,213.1,42.5z"/>
<path id="XMLID_299_" class="st3" d="M245.5,41.9c-8.7-8.7-20.2-13.4-32.5-13.4c-12.3,0-23.8,4.8-32.5,13.4
	c-8.7,8.7-13.4,20.2-13.4,32.5v17.3h10.3V74.4c0-19.7,16-35.6,35.6-35.6s35.6,16,35.6,35.6v17.3H259V74.4
	C259,62.1,254.2,50.6,245.5,41.9z"/>
<path id="XMLID_298_" class="st2" d="M251.8,18.3h7.2v7.2c0,1,0.8,1.9,1.9,1.9c1,0,1.9-0.8,1.9-1.9v-7.2h7.2c1,0,1.9-0.8,1.9-1.9
	c0-1-0.8-1.9-1.9-1.9h-7.2V7.3c0-1-0.8-1.9-1.9-1.9c-1,0-1.9,0.8-1.9,1.9v7.2h-7.2c-1,0-1.9,0.8-1.9,1.9
	C249.9,17.4,250.7,18.3,251.8,18.3z"/>
<path id="XMLID_297_" class="st4" d="M257.6,192.7c-2.6,0-4.9,1.1-6.5,2.8H264C262.4,193.8,260.1,192.7,257.6,192.7z"/>
<rect id="XMLID_296_" x="262.8" y="91.7" class="st4" width="26.8" height="12.7"/>
<path id="XMLID_599_" class="st5" d="M244.9,174l-0.1-36.9c0-0.5,0.2-1,0.6-1.3c0.4-0.4,0.8-0.6,1.3-0.6h42.8v-16.3h-28.7
	c-1,0-1.9-0.8-1.9-1.9c0-1,0.8-1.9,1.9-1.9h28.7v-7h-28.7c-1,0-1.9-0.8-1.9-1.9V91.7h-10.3v14.6c0,1-0.8,1.9-1.9,1.9
	c-1,0-1.9-0.8-1.9-1.9V91.7h-63.7v14.6c0,1-0.8,1.9-1.9,1.9c-1,0-1.9-0.8-1.9-1.9V91.7h-10.3v14.6c0,1-0.8,1.9-1.9,1.9
	c-1,0-1.9-0.8-1.9-1.9V91.7h-23.4v20h39.4c1,0,1.9,0.8,1.9,1.9v36.9c0,1-0.8,1.9-1.9,1.9h-39.4v30.1h39.4c1,0,1.9,0.8,1.9,1.9
	c0,1-0.8,1.9-1.9,1.9h-39.4v7.4h39.4c1,0,1.9,0.8,1.9,1.9h65.3c2.1-3.9,6.3-6.6,11.1-6.6c4.8,0,9,2.7,11.1,6.6h20.9v-19.6h-42.7
	C245.8,175.9,244.9,175,244.9,174z M236.2,174.3c0.2,0.6,0.1,1.2-0.3,1.7c-0.4,0.5-0.9,0.8-1.5,0.8H195c-0.6,0-1.2-0.3-1.5-0.8
	c-0.4-0.5-0.4-1.1-0.2-1.7l8.1-23c-5.2-4.3-8.2-10.8-8.2-17.7c0-5,1.5-9.7,4.4-13.7c2.8-3.9,6.8-6.7,11.2-8c1.9-0.6,3.9-0.9,5.9-0.9
	c11.9,0,21.6,10.1,21.6,22.6c0,1.3-0.1,2.6-0.3,3.9c-0.8,5-3.3,9.5-6.9,12.9L236.2,174.3z"/>
<path id="XMLID_295_" class="st6" d="M118.5,113.6V96.2l-34.9,34.9l34.9,34.9v-15.5c0-1,0.8-1.9,1.9-1.9h57v-33.1h-57
	C119.4,115.5,118.5,114.7,118.5,113.6z"/>
<path id="XMLID_593_" class="st1" d="M181.2,150.5v-36.9c0-1-0.8-1.9-1.9-1.9h-39.4h-17.6V91.6c0-0.8-0.5-1.5-1.2-1.8
	c-0.7-0.3-1.5-0.1-2.1,0.4l-39.5,39.5c-0.7,0.7-0.7,1.9,0,2.7l39.5,39.5c0.4,0.4,0.8,0.6,1.3,0.6c0.2,0,0.5,0,0.7-0.1
	c0.7-0.3,1.2-1,1.2-1.8v-18.2h17.6h39.4C180.4,152.4,181.2,151.5,181.2,150.5z M177.4,148.6h-57c-1,0-1.9,0.8-1.9,1.9V166
	l-34.9-34.9l34.9-34.9v17.4c0,1,0.8,1.9,1.9,1.9h57V148.6z"/>
<path id="XMLID_294_" class="st7" d="M225.7,148.3c3.4-2.9,5.8-6.9,6.5-11.5c0.2-1.1,0.3-2.2,0.3-3.3c0-10.4-8-18.8-17.8-18.8
	c-1.6,0-3.3,0.2-4.8,0.7c-7.6,2.3-13,9.7-13,18.1c0,6.2,2.9,11.9,7.7,15.5l0.1,0c0.7,0.5,1,1.4,0.7,2.2l-7.6,21.7h34.1l-6.7-22.7
	C224.9,149.5,225.2,148.7,225.7,148.3z"/>
<path id="XMLID_587_" class="st2" d="M236,137.4c0.2-1.3,0.3-2.6,0.3-3.9c0-12.4-9.7-22.6-21.6-22.6c-2,0-4,0.3-5.9,0.9
	c-4.4,1.3-8.4,4.2-11.2,8c-2.9,4-4.4,8.7-4.4,13.7c0,6.9,3,13.4,8.2,17.7l-8.1,23c-0.2,0.6-0.1,1.2,0.2,1.7c0.4,0.5,0.9,0.8,1.5,0.8
	h39.4c0.6,0,1.2-0.3,1.5-0.8c0.4-0.5,0.5-1.1,0.3-1.7l-7.1-23.9C232.7,147,235.2,142.4,236,137.4z M225.1,150.3l6.7,22.7h-34.1
	l7.6-21.7c0.3-0.8,0-1.7-0.7-2.2l-0.1,0c-4.8-3.5-7.7-9.3-7.7-15.5c0-8.4,5.3-15.8,13-18.1c1.6-0.5,3.2-0.7,4.8-0.7
	c9.8,0,17.8,8.4,17.8,18.8c0,1.1-0.1,2.2-0.3,3.3c-0.8,4.5-3.1,8.6-6.5,11.5C225.2,148.7,224.9,149.5,225.1,150.3z"/>
<path id="XMLID_293_" class="st6" d="M308.2,137.1c0,1-0.8,1.9-1.9,1.9h-57.6l0,33.1h57.6c1,0,1.9,0.8,1.9,1.9v17.4l34.9-34.9
	l-34.9-34.9V137.1z"/>
<path id="XMLID_581_" class="st1" d="M347.1,155.1l-39.5-39.5c-0.5-0.5-1.4-0.7-2.1-0.4c-0.7,0.3-1.2,1-1.2,1.8v18.2h-14.9h-42.8
	c-0.5,0-1,0.2-1.3,0.6c-0.4,0.4-0.6,0.8-0.6,1.3l0.1,36.9c0,1,0.9,1.9,1.9,1.9h42.7h14.9V196c0,0.8,0.5,1.5,1.2,1.8
	c0.2,0.1,0.5,0.1,0.7,0.1c0.5,0,1-0.2,1.3-0.6l39.5-39.5c0.4-0.4,0.6-0.8,0.6-1.3C347.7,156,347.5,155.5,347.1,155.1z M308.2,191.4
	V174c0-1-0.8-1.9-1.9-1.9h-57.6l0-33.1h57.6c1,0,1.9-0.8,1.9-1.9v-15.5l34.9,34.9L308.2,191.4z"/>
<path id="XMLID_292_" class="st2" d="M213.1,38.7c-19.7,0-35.6,16-35.6,35.6v17.3v14.6c0,1,0.8,1.9,1.9,1.9c1,0,1.9-0.8,1.9-1.9
	V91.7V74.4c0-17.6,14.3-31.8,31.8-31.8s31.8,14.3,31.8,31.8v17.3v14.6c0,1,0.8,1.9,1.9,1.9c1,0,1.9-0.8,1.9-1.9V91.7V74.4
	C248.7,54.7,232.7,38.7,213.1,38.7z"/>
<path id="XMLID_291_" class="st2" d="M165.3,108.1c1,0,1.9-0.8,1.9-1.9V91.7V74.4c0-12.3,4.8-23.8,13.4-32.5
	c8.7-8.7,20.2-13.4,32.5-13.4c12.3,0,23.8,4.8,32.5,13.4c8.7,8.7,13.4,20.2,13.4,32.5v17.3v14.6c0,1,0.8,1.9,1.9,1.9h28.7h8.2
	c1,0,1.9-0.8,1.9-1.9s-0.8-1.9-1.9-1.9h-8.2h-26.8V91.7V74.4c0-13.3-5.2-25.8-14.6-35.1c-9.4-9.4-21.9-14.6-35.1-14.6
	s-25.8,5.2-35.1,14.6c-9.4,9.4-14.6,21.9-14.6,35.1v17.3v14.6C163.4,107.3,164.2,108.1,165.3,108.1z"/>
<path id="XMLID_290_" class="st2" d="M181.2,184.4c0-1-0.8-1.9-1.9-1.9h-39.4h-19.8c-1,0-1.9,0.8-1.9,1.9c0,1,0.8,1.9,1.9,1.9h19.8
	h39.4C180.4,186.3,181.2,185.4,181.2,184.4z"/>
<path id="XMLID_289_" class="st2" d="M179.3,193.6h-39.4h-19.8c-1,0-1.9,0.8-1.9,1.9s0.8,1.9,1.9,1.9h59.2c1,0,1.9-0.8,1.9-1.9
	S180.4,193.6,179.3,193.6z"/>
<path id="XMLID_65_" class="st2" d="M259,117c0,1,0.8,1.9,1.9,1.9h28.7h8.2c1,0,1.9-0.8,1.9-1.9c0-1-0.8-1.9-1.9-1.9h-8.2h-28.7
	C259.8,115.1,259,116,259,117z"/>
<path id="XMLID_567_" class="st2" d="M257.6,188.9c-4.8,0-9,2.7-11.1,6.6c-1,1.8-1.5,3.8-1.5,6c0,6.9,5.6,12.6,12.6,12.6
	c6.9,0,12.6-5.6,12.6-12.6c0-2.2-0.5-4.2-1.5-6C266.5,191.6,262.3,188.9,257.6,188.9z M257.6,210.3c-4.8,0-8.8-3.9-8.8-8.8
	c0-2.3,0.9-4.4,2.3-6c1.6-1.7,3.9-2.8,6.5-2.8c2.6,0,4.9,1.1,6.5,2.8c1.4,1.6,2.3,3.7,2.3,6C266.3,206.3,262.4,210.3,257.6,210.3z"
	/>
<path id="XMLID_563_" class="st2" d="M141,72.8c4.7,0,8.6-3.9,8.6-8.6s-3.9-8.6-8.6-8.6c-4.7,0-8.6,3.9-8.6,8.6S136.3,72.8,141,72.8
	z M141,59.4c2.7,0,4.8,2.2,4.8,4.8c0,2.7-2.2,4.8-4.8,4.8s-4.8-2.2-4.8-4.8C136.2,61.6,138.4,59.4,141,59.4z"/>
<path id="XMLID_559_" class="st2" d="M294.7,78.5c5.7,0,10.3-4.6,10.3-10.3c0-5.7-4.6-10.3-10.3-10.3c-5.7,0-10.3,4.6-10.3,10.3
	C284.3,73.9,289,78.5,294.7,78.5z M294.7,61.6c3.6,0,6.5,2.9,6.5,6.5c0,3.6-2.9,6.5-6.5,6.5c-3.6,0-6.5-2.9-6.5-6.5
	C288.1,64.6,291.1,61.6,294.7,61.6z"/>
</svg>
